/* XPM */
static char * free_xpm[] =
{
     "10 10 2 1",
     "       c None",
     "+      c #ffffff",
     "++++++++++",
     "+        +",
     "+ +++++  +",
     "+ +   +  +",
     "+ +   ++ +",
     "+ ++++++ +",
     "+  +   + +",
     "+  +++++ +",
     "+        +",
     "++++++++++"
};
