/* XPM */
static char * tile_xpm[] =
{
     "10 10 2 1",
     "       c None",
     "+      c #ffffff",
     "++++++++++", 
     "+   +    +",
     "+   +    +",
     "+   ++++++",
     "+   +    +",
     "+   +    +",
     "+   ++++++",
     "+   +    +",
     "+   +    +",
     "++++++++++"
};
